<svg width="180" height="180" viewBox="0 0 180 180" fill="none" xmlns="http://www.w3.org/2000/svg">
<rect width="180" height="180" rx="90" fill="white"/>
<path fill-rule="evenodd" clip-rule="evenodd" d="M78.5268 53V61.1746L77.5294 61.5707C71.9382 63.7942 61.4446 72.2957 61.4446 90.0424C61.4446 92.4899 61.7239 98.2941 63.9136 104.165C66.1001 110.025 70.1156 115.777 77.4904 118.499L78.5236 118.882V126.942L76.9544 126.992C71.4996 127.162 62.1885 124.743 51.3278 114.593L51.305 114.573L26 90.0424L51.305 65.5124C51.4285 65.3927 51.5584 65.2684 51.6884 65.14C55.6129 61.3228 63.2996 53.8434 76.8049 53.0952L78.5268 53ZM101.473 53.0926L103.098 53.0926C116.077 53.0926 123.965 60.8593 127.961 64.7946C128.221 65.0512 128.464 65.2915 128.692 65.5124L154 90.0424L128.672 114.593C117.811 124.743 108.497 127.162 103.046 126.992L101.473 126.943V118.882L102.51 118.5C109.881 115.777 113.897 110.025 116.083 104.165C118.273 98.2941 118.552 92.4899 118.552 90.0424C118.552 72.2957 108.062 63.7942 102.471 61.5707L101.473 61.1746V53.0926Z" fill="url(#paint0_linear_553_715)"/>
<defs>
<linearGradient id="paint0_linear_553_715" x1="157.577" y1="89.9537" x2="22.7512" y2="89.9537" gradientUnits="userSpaceOnUse">
<stop stop-color="#FAB91D"/>
<stop offset="0.361977" stop-color="#FA65A9"/>
<stop offset="0.62177" stop-color="#001D81"/>
<stop offset="1" stop-color="#00C0ED"/>
</linearGradient>
</defs>
</svg>
